<svg width="24" height="25" viewBox="0 0 24 25" fill="none" xmlns="http://www.w3.org/2000/svg">
<path d="M10.4121 20.71C10.2045 21.2904 9.64867 21.71 9 21.71C8.35133 21.71 7.79549 21.2904 7.58789 20.71H10.4121ZM12.5 17.71V18.71H5.5V17.71H12.5ZM9 2.70996C12.8639 2.70996 16 5.8461 16 9.70996C16 13.147 13.6894 15.0422 12.5908 15.71H5.40918C4.31065 15.0422 2 13.147 2 9.70996C2 5.8461 5.13614 2.70996 9 2.70996ZM9 3.70996C5.69386 3.70996 3 6.40382 3 9.70996C3 12.4088 4.63429 13.9612 5.56055 14.6182L5.69043 14.71H12.3096L12.4395 14.6182C13.3657 13.9612 15 12.4088 15 9.70996C15 6.40382 12.3061 3.70996 9 3.70996ZM22.1758 7.78906L22.2529 7.95703L22.4209 8.03418L22.8027 8.20996L22.4209 8.38574L22.2529 8.46289L22.1758 8.63086L22 9.0127L21.8242 8.63086L21.7471 8.46289L21.5791 8.38574L21.1963 8.20996L21.5791 8.03418L21.7471 7.95703L21.8242 7.78906L22 7.40625L22.1758 7.78906ZM19.4854 2.47754L19.5625 2.64746L19.7324 2.72461L20.7949 3.20996L19.7324 3.69531L19.5625 3.77246L19.4854 3.94238L19 5.00488L18.5146 3.94238L18.4375 3.77246L18.2676 3.69531L17.2041 3.20996L18.2676 2.72461L18.4375 2.64746L18.5146 2.47754L19 1.41406L19.4854 2.47754Z" fill="black" stroke="white"/>
</svg>
